<svg width="129" height="40" viewBox="0 0 129 40" fill="none" xmlns="http://www.w3.org/2000/svg">
<rect x="4.5" y="4.5" width="31" height="31" rx="15.5" stroke="#096343" stroke-dasharray="2 2"/>
<path d="M28.781 13.469C28.8508 13.5387 28.9062 13.6214 28.944 13.7125C28.9818 13.8037 29.0013 13.9013 29.0013 14C29.0013 14.0986 28.9818 14.1963 28.944 14.2874C28.9062 14.3786 28.8508 14.4613 28.781 14.531L18.281 25.031C18.2113 25.1008 18.1285 25.1563 18.0374 25.1941C17.9463 25.2319 17.8486 25.2513 17.75 25.2513C17.6513 25.2513 17.5536 25.2319 17.4625 25.1941C17.3714 25.1563 17.2886 25.1008 17.219 25.031L11.969 19.781C11.8281 19.6402 11.749 19.4492 11.749 19.25C11.749 19.0508 11.8281 18.8598 11.969 18.719C12.1098 18.5782 12.3008 18.4991 12.5 18.4991C12.6991 18.4991 12.8901 18.5782 13.031 18.719L17.75 23.4395L27.719 13.469C27.7886 13.3992 27.8714 13.3437 27.9625 13.3059C28.0536 13.2681 28.1513 13.2487 28.25 13.2487C28.3486 13.2487 28.4463 13.2681 28.5374 13.3059C28.6285 13.3437 28.7113 13.3992 28.781 13.469Z" fill="#096343"/>
<path d="M51.536 14.848V16.032H46.688V19.792H50.624V20.976H46.688V26H45.232V14.848H51.536ZM54.0465 15.808C53.7692 15.808 53.5345 15.712 53.3425 15.52C53.1505 15.328 53.0545 15.0933 53.0545 14.816C53.0545 14.5387 53.1505 14.304 53.3425 14.112C53.5345 13.92 53.7692 13.824 54.0465 13.824C54.3132 13.824 54.5372 13.92 54.7185 14.112C54.9105 14.304 55.0065 14.5387 55.0065 14.816C55.0065 15.0933 54.9105 15.328 54.7185 15.52C54.5372 15.712 54.3132 15.808 54.0465 15.808ZM54.7505 17.232V26H53.2945V17.232H54.7505ZM61.504 17.072C62.5707 17.072 63.4347 17.3973 64.096 18.048C64.7573 18.688 65.088 19.616 65.088 20.832V26H63.648V21.04C63.648 20.1653 63.4293 19.4987 62.992 19.04C62.5547 18.5707 61.9573 18.336 61.2 18.336C60.432 18.336 59.8187 18.576 59.36 19.056C58.912 19.536 58.688 20.2347 58.688 21.152V26H57.232V17.232H58.688V18.48C58.976 18.032 59.3653 17.6853 59.856 17.44C60.3573 17.1947 60.9067 17.072 61.504 17.072ZM66.9224 21.584C66.9224 20.688 67.1037 19.904 67.4664 19.232C67.829 18.5493 68.325 18.0213 68.9544 17.648C69.5944 17.2747 70.3037 17.088 71.0824 17.088C71.8504 17.088 72.517 17.2533 73.0824 17.584C73.6477 17.9147 74.069 18.3307 74.3464 18.832V17.232H75.8184V26H74.3464V24.368C74.0584 24.88 73.6264 25.3067 73.0504 25.648C72.485 25.9787 71.8237 26.144 71.0664 26.144C70.2877 26.144 69.5837 25.952 68.9544 25.568C68.325 25.184 67.829 24.6453 67.4664 23.952C67.1037 23.2587 66.9224 22.4693 66.9224 21.584ZM74.3464 21.6C74.3464 20.9387 74.213 20.3627 73.9464 19.872C73.6797 19.3813 73.317 19.008 72.8584 18.752C72.4104 18.4853 71.9144 18.352 71.3704 18.352C70.8264 18.352 70.3304 18.48 69.8824 18.736C69.4344 18.992 69.077 19.3653 68.8104 19.856C68.5437 20.3467 68.4104 20.9227 68.4104 21.584C68.4104 22.256 68.5437 22.8427 68.8104 23.344C69.077 23.8347 69.4344 24.2133 69.8824 24.48C70.3304 24.736 70.8264 24.864 71.3704 24.864C71.9144 24.864 72.4104 24.736 72.8584 24.48C73.317 24.2133 73.6797 23.8347 73.9464 23.344C74.213 22.8427 74.3464 22.2613 74.3464 21.6ZM79.7349 14.16V26H78.2789V14.16H79.7349ZM82.9684 15.808C82.691 15.808 82.4564 15.712 82.2644 15.52C82.0724 15.328 81.9764 15.0933 81.9764 14.816C81.9764 14.5387 82.0724 14.304 82.2644 14.112C82.4564 13.92 82.691 13.824 82.9684 13.824C83.235 13.824 83.459 13.92 83.6404 14.112C83.8324 14.304 83.9284 14.5387 83.9284 14.816C83.9284 15.0933 83.8324 15.328 83.6404 15.52C83.459 15.712 83.235 15.808 82.9684 15.808ZM83.6724 17.232V26H82.2164V17.232H83.6724ZM87.2419 24.8H91.5459V26H85.5779V24.8L89.8339 18.416H85.6099V17.232H91.5139V18.416L87.2419 24.8ZM92.8911 21.584C92.8911 20.688 93.0725 19.904 93.4351 19.232C93.7978 18.5493 94.2938 18.0213 94.9231 17.648C95.5631 17.2747 96.2725 17.088 97.0511 17.088C97.8191 17.088 98.4858 17.2533 99.0511 17.584C99.6165 17.9147 100.038 18.3307 100.315 18.832V17.232H101.787V26H100.315V24.368C100.027 24.88 99.5951 25.3067 99.0191 25.648C98.4538 25.9787 97.7925 26.144 97.0351 26.144C96.2565 26.144 95.5525 25.952 94.9231 25.568C94.2938 25.184 93.7978 24.6453 93.4351 23.952C93.0725 23.2587 92.8911 22.4693 92.8911 21.584ZM100.315 21.6C100.315 20.9387 100.182 20.3627 99.9151 19.872C99.6485 19.3813 99.2858 19.008 98.8271 18.752C98.3791 18.4853 97.8831 18.352 97.3391 18.352C96.7951 18.352 96.2991 18.48 95.8511 18.736C95.4031 18.992 95.0458 19.3653 94.7791 19.856C94.5125 20.3467 94.3791 20.9227 94.3791 21.584C94.3791 22.256 94.5125 22.8427 94.7791 23.344C95.0458 23.8347 95.4031 24.2133 95.8511 24.48C96.2991 24.736 96.7951 24.864 97.3391 24.864C97.8831 24.864 98.3791 24.736 98.8271 24.48C99.2858 24.2133 99.6485 23.8347 99.9151 23.344C100.182 22.8427 100.315 22.2613 100.315 21.6ZM103.704 21.584C103.704 20.688 103.885 19.904 104.248 19.232C104.61 18.5493 105.106 18.0213 105.736 17.648C106.376 17.2747 107.09 17.088 107.88 17.088C108.562 17.088 109.197 17.248 109.784 17.568C110.37 17.8773 110.818 18.288 111.128 18.8V14.16H112.6V26H111.128V24.352C110.84 24.8747 110.413 25.3067 109.848 25.648C109.282 25.9787 108.621 26.144 107.864 26.144C107.085 26.144 106.376 25.952 105.736 25.568C105.106 25.184 104.61 24.6453 104.248 23.952C103.885 23.2587 103.704 22.4693 103.704 21.584ZM111.128 21.6C111.128 20.9387 110.994 20.3627 110.728 19.872C110.461 19.3813 110.098 19.008 109.64 18.752C109.192 18.4853 108.696 18.352 108.152 18.352C107.608 18.352 107.112 18.48 106.664 18.736C106.216 18.992 105.858 19.3653 105.592 19.856C105.325 20.3467 105.192 20.9227 105.192 21.584C105.192 22.256 105.325 22.8427 105.592 23.344C105.858 23.8347 106.216 24.2133 106.664 24.48C107.112 24.736 107.608 24.864 108.152 24.864C108.696 24.864 109.192 24.736 109.64 24.48C110.098 24.2133 110.461 23.8347 110.728 23.344C110.994 22.8427 111.128 22.2613 111.128 21.6ZM118.884 26.144C118.063 26.144 117.316 25.9573 116.644 25.584C115.983 25.2107 115.46 24.6827 115.076 24C114.703 23.3067 114.516 22.5067 114.516 21.6C114.516 20.704 114.708 19.9147 115.092 19.232C115.487 18.5387 116.02 18.0107 116.692 17.648C117.364 17.2747 118.116 17.088 118.948 17.088C119.78 17.088 120.532 17.2747 121.204 17.648C121.876 18.0107 122.404 18.5333 122.788 19.216C123.183 19.8987 123.38 20.6933 123.38 21.6C123.38 22.5067 123.177 23.3067 122.772 24C122.377 24.6827 121.839 25.2107 121.156 25.584C120.473 25.9573 119.716 26.144 118.884 26.144ZM118.884 24.864C119.407 24.864 119.897 24.7413 120.356 24.496C120.815 24.2507 121.183 23.8827 121.46 23.392C121.748 22.9013 121.892 22.304 121.892 21.6C121.892 20.896 121.753 20.2987 121.476 19.808C121.199 19.3173 120.836 18.9547 120.388 18.72C119.94 18.4747 119.455 18.352 118.932 18.352C118.399 18.352 117.908 18.4747 117.46 18.72C117.023 18.9547 116.671 19.3173 116.404 19.808C116.137 20.2987 116.004 20.896 116.004 21.6C116.004 22.3147 116.132 22.9173 116.388 23.408C116.655 23.8987 117.007 24.2667 117.444 24.512C117.881 24.7467 118.361 24.864 118.884 24.864Z" fill="#096343"/>
</svg>
