<svg width="21" height="25" viewBox="0 0 21 25" fill="none" xmlns="http://www.w3.org/2000/svg">
<path d="M10.5 25.0014C11.2956 25.0014 12.0587 24.6721 12.6213 24.0861C13.1839 23.5 13.5 22.7052 13.5 21.8764H7.5C7.5 22.7052 7.81607 23.5 8.37868 24.0861C8.94129 24.6721 9.70435 25.0014 10.5 25.0014ZM11.9925 1.71855C12.0134 1.50129 11.9904 1.28188 11.9249 1.07445C11.8595 0.867024 11.753 0.676195 11.6124 0.51427C11.4717 0.352346 11.3001 0.222921 11.1085 0.134343C10.9169 0.0457648 10.7096 0 10.5 0C10.2904 0 10.0831 0.0457648 9.8915 0.134343C9.6999 0.222921 9.52826 0.352346 9.38763 0.51427C9.24701 0.676195 9.14052 0.867024 9.07505 1.07445C9.00958 1.28188 8.98656 1.50129 9.0075 1.71855C7.31208 2.07778 5.78793 3.03631 4.69315 4.43184C3.59836 5.82737 3.00022 7.57414 3 9.37637C3 11.092 2.25 18.7514 0 20.3139H21C18.75 18.7514 18 11.092 18 9.37637C18 5.59512 15.42 2.43887 11.9925 1.71855Z" fill="white"/>
</svg>
