<svg width="20" height="5" viewBox="0 0 20 5" fill="none" xmlns="http://www.w3.org/2000/svg">
<path d="M2.25 4.5C1.65326 4.5 1.08097 4.26295 0.65901 3.84099C0.237053 3.41903 0 2.84674 0 2.25C0 1.65326 0.237053 1.08097 0.65901 0.659009C1.08097 0.237053 1.65326 0 2.25 0C2.84674 0 3.41903 0.237053 3.84099 0.659009C4.26295 1.08097 4.5 1.65326 4.5 2.25C4.5 2.84674 4.26295 3.41903 3.84099 3.84099C3.41903 4.26295 2.84674 4.5 2.25 4.5ZM9.75 4.5C9.15326 4.5 8.58097 4.26295 8.15901 3.84099C7.73705 3.41903 7.5 2.84674 7.5 2.25C7.5 1.65326 7.73705 1.08097 8.15901 0.659009C8.58097 0.237053 9.15326 0 9.75 0C10.3467 0 10.919 0.237053 11.341 0.659009C11.7629 1.08097 12 1.65326 12 2.25C12 2.84674 11.7629 3.41903 11.341 3.84099C10.919 4.26295 10.3467 4.5 9.75 4.5ZM17.25 4.5C16.6533 4.5 16.081 4.26295 15.659 3.84099C15.2371 3.41903 15 2.84674 15 2.25C15 1.65326 15.2371 1.08097 15.659 0.659009C16.081 0.237053 16.6533 0 17.25 0C17.8467 0 18.419 0.237053 18.841 0.659009C19.2629 1.08097 19.5 1.65326 19.5 2.25C19.5 2.84674 19.2629 3.41903 18.841 3.84099C18.419 4.26295 17.8467 4.5 17.25 4.5Z" fill="white"/>
</svg>
